<svg preserveAspectRatio="xMidYMid meet" data-bbox="0 0 1674.01 310.97" viewBox="0 0 1674.01 310.97" xmlns="http://www.w3.org/2000/svg" data-type="shape" role="img" aria-label="Singular">
    <g fill="#12222E">
        <path d="M168.14 218.06c-6.3 10.63-15.65 19.15-28.02 25.57-12.38 6.43-27.44 9.64-45.19 9.64s-33.17-2.98-46.94-8.94c-13.78-5.95-24.81-14.54-33.1-25.75C6.6 207.38 1.87 194.3.71 179.35h52.54c1.16 10.04 5.19 18.38 12.08 25.05 6.89 6.65 16.05 9.98 27.5 9.98 10.28 0 18.16-2.74 23.65-8.23 5.49-5.48 8.23-12.55 8.23-21.2 0-7.7-2.22-14.07-6.65-19.09-4.44-5.02-10.04-9.05-16.81-12.09-6.78-3.03-16.11-6.53-28.02-10.5-15.41-5.14-28.03-10.22-37.84-15.25-9.81-5.01-18.16-12.31-25.05-21.89C3.44 96.57 0 84.07 0 68.65c0-21.24 7.65-38 22.94-50.26C38.24 6.13 58.5 0 83.72 0s47 6.3 62.53 18.92c15.53 12.61 24.34 29.43 26.45 50.44h-53.25c-1.4-8.87-5.14-16.16-11.21-21.89-6.08-5.72-14.36-8.58-24.87-8.58-9.11 0-16.46 2.4-22.07 7.18-5.61 4.79-8.41 11.74-8.41 20.84 0 7.24 2.16 13.26 6.48 18.04 4.32 4.79 9.81 8.7 16.46 11.74 6.65 3.04 15.7 6.42 27.15 10.16 15.88 5.61 28.78 10.86 38.71 15.76 9.92 4.9 18.39 12.26 25.4 22.07 7.01 9.81 10.51 22.66 10.51 38.53 0 12.62-3.15 24.24-9.46 34.86Z"></path>
        <path d="M264.4 3.5v247.32h-49.39V3.5h49.39Z"></path>
        <path d="M521.63 250.82h-49.39L361.54 82.68v168.14h-49.39V3.5h49.39l110.7 169.55V3.5h49.39v247.32Z"></path>
        <path d="M756.3 23.3c19.85 14.83 32.58 34.86 38.18 60.07h-51.84c-4.9-11.2-12.67-20.14-23.3-26.8-10.63-6.65-23.18-9.98-37.66-9.98s-26.86 3.27-37.83 9.81c-10.98 6.54-19.5 15.88-25.57 28.02-6.07 12.15-9.11 26.39-9.11 42.74 0 25.92 6.95 46.12 20.84 60.6 13.89 14.48 32.87 21.71 56.92 21.71 17.74 0 32.98-5.25 45.71-15.76 12.73-10.51 20.96-25.1 24.7-43.78h-83.73v-35.39h125.06v47.65c-3.5 16.35-10.34 31.41-20.49 45.19-10.16 13.78-23.47 24.81-39.94 33.1-16.46 8.29-35.33 12.43-56.57 12.43-24.29 0-45.71-5.31-64.28-15.94-18.56-10.62-32.93-25.45-43.09-44.49-10.16-19.03-15.24-40.81-15.24-65.33s5.08-46.3 15.24-65.33 24.46-33.92 42.91-44.66c18.45-10.74 39.81-16.12 64.1-16.12 30.13 0 55.11 7.42 74.97 22.25Z"></path>
        <path d="M883.6 3.5v145.03c0 19.39 4.26 33.92 12.79 43.62 8.52 9.69 20.84 14.54 36.96 14.54s28.08-4.84 36.61-14.54c8.52-9.69 12.79-24.23 12.79-43.62V3.5h49.04v145.03c0 22.89-4.26 42.21-12.79 57.97-8.52 15.76-20.32 27.5-35.38 35.21-15.06 7.7-32.17 11.56-51.32 11.56-29.66 0-53.37-8.88-71.11-26.63-17.75-17.74-26.62-43.78-26.62-78.12V3.5h49.04Z"></path>
        <path d="M1127.16 212.99h83.02v37.83h-132.41V3.5h49.39v209.48Z"></path>
        <path d="M1396.4 201.07h-99.14l-17.51 49.75h-52.2L1318.64 6.3h56.4l90.73 244.52h-52.2l-17.17-49.75Zm-13.31-37.48L1346.66 59.2l-36.43 104.39h72.86Z"></path>
        <path d="m1619.37 250.82-57.8-96.34h-21.72v96.34h-49.39V3.5h94.23c28.72 0 50.62 7.01 65.68 21.02 15.07 14.01 22.59 32.46 22.59 55.34 0 18.68-5.2 34.33-15.58 46.94-10.39 12.62-25.4 21.02-45.02 25.22l61.64 98.79h-54.64Zm-79.52-130.31h40.63c28.26 0 42.39-12.49 42.39-37.48 0-11.91-3.44-21.19-10.33-27.85-6.89-6.66-17.57-9.99-32.05-9.99h-40.63v75.32Z"></path>
        <path d="M1674.01 303.15v7.82H0v-7.82h1674.01z"></path>
    </g>
</svg>
